<?xml version="1.0" encoding="utf-8"?>
<!-- Generator: Adobe Illustrator 15.0.0, SVG Export Plug-In . SVG Version: 6.00 Build 0)  -->
<!DOCTYPE svg PUBLIC "-//W3C//DTD SVG 1.1//EN" "http://www.w3.org/Graphics/SVG/1.1/DTD/svg11.dtd">
<svg version="1.1" id="Layer_1" xmlns="http://www.w3.org/2000/svg" xmlns:xlink="http://www.w3.org/1999/xlink" x="0px" y="0px"
	 width="20px" height="20px" viewBox="0 0 20 20" enable-background="new 0 0 20 20" xml:space="preserve">
<radialGradient id="SVGID_1_" cx="10.2227" cy="7.1318" r="5.6839" gradientUnits="userSpaceOnUse">
	<stop  offset="0" style="stop-color:#69BDE2"/>
	<stop  offset="0.2277" style="stop-color:#62B6DB"/>
	<stop  offset="0.5686" style="stop-color:#50A2C6"/>
	<stop  offset="0.9788" style="stop-color:#3382A5"/>
	<stop  offset="1" style="stop-color:#3180A3"/>
</radialGradient>
<path fill="url(#SVGID_1_)" d="M11.815,4.112l-1.561-3.386L8.604,4.119C6.722,4.788,5.365,6.568,5.365,8.68
	c0,2.683,2.175,4.857,4.857,4.857s4.856-2.174,4.856-4.857C15.079,6.559,13.71,4.773,11.815,4.112z"/>
<radialGradient id="SVGID_2_" cx="14.7705" cy="14.3379" r="5.2407" gradientUnits="userSpaceOnUse">
	<stop  offset="0" style="stop-color:#FCEE21"/>
	<stop  offset="0.2205" style="stop-color:#F5E721"/>
	<stop  offset="0.5506" style="stop-color:#E0D520"/>
	<stop  offset="0.9477" style="stop-color:#BFB71F"/>
	<stop  offset="1" style="stop-color:#BAB31F"/>
</radialGradient>
<path fill="url(#SVGID_2_)" d="M16.502,18.301L20,19.59l-1.232-3.566c0.858-1.805,0.559-4.02-0.934-5.514
	c-1.897-1.898-4.973-1.898-6.87,0c-1.897,1.896-1.897,4.973,0,6.867C12.465,18.88,14.694,19.172,16.502,18.301z"/>
<radialGradient id="SVGID_3_" cx="5.5459" cy="14.3389" r="5.2407" gradientUnits="userSpaceOnUse">
	<stop  offset="0" style="stop-color:#ED1C24"/>
	<stop  offset="0.2917" style="stop-color:#E61E26"/>
	<stop  offset="0.7274" style="stop-color:#D1232A"/>
	<stop  offset="1" style="stop-color:#C1272D"/>
</radialGradient>
<path fill="url(#SVGID_3_)" d="M1.584,16.071l-1.291,3.497l3.567-1.233c1.804,0.859,4.022,0.562,5.515-0.933
	c1.897-1.897,1.897-4.973,0-6.871c-1.896-1.896-4.972-1.896-6.869,0C1.005,12.033,0.711,14.262,1.584,16.071z"/>
</svg>
