<?xml version="1.0" encoding="utf-8"?>
<!-- Generator: Adobe Illustrator 15.0.0, SVG Export Plug-In . SVG Version: 6.00 Build 0)  -->
<!DOCTYPE svg PUBLIC "-//W3C//DTD SVG 1.1//EN" "http://www.w3.org/Graphics/SVG/1.1/DTD/svg11.dtd">
<svg version="1.1" id="Layer_1" xmlns="http://www.w3.org/2000/svg" xmlns:xlink="http://www.w3.org/1999/xlink" x="0px" y="0px"
	 width="208.625px" height="30.061px" viewBox="0 0 208.625 30.061" enable-background="new 0 0 208.625 30.061"
	 xml:space="preserve">
<g>
	<path d="M8.603,24.787H0.395v-0.492c2.408,0,2.615-0.621,2.615-2.484V7.594c0-1.864-0.208-2.485-2.615-2.485V4.642H8.37
		c6.628,0,10.253,3.859,10.253,9.762C18.624,20.619,15.023,24.787,8.603,24.787 M6.894,5.29H6.376v18.851H6.79
		c5.566,0,7.872-3.315,7.872-9.632C14.662,9.666,13.134,5.29,6.894,5.29"/>
	<path d="M27.944,24.787v-0.492c2.201,0,2.796-0.725,2.071-2.64l-1.216-3.289h-6.887l-0.803,2.331
		c-0.88,2.563-0.337,3.598,2.123,3.598v0.492h-6.42v-0.492c1.812-0.283,2.615-0.854,3.573-3.598l5.748-16.365h1.139l6.888,17.893
		c0.648,1.657,1.398,1.993,2.641,2.071v0.492H27.944z M25.226,8.76l-3.082,8.933h6.396L25.226,8.76z"/>
	<path d="M37.447,24.787v-0.492c2.408,0,2.615-0.621,2.615-2.484V7.594c0-1.865-0.208-2.485-2.615-2.485V4.642h8.855v0.467
		c-2.408,0-2.615,0.621-2.615,2.485v14.216c0,1.863,0.208,2.484,2.615,2.484v0.492H37.447z"/>
	<path d="M63.055,24.787H47.727v-0.492c2.408,0,2.614-0.621,2.614-2.484V7.594c0-1.865-0.207-2.485-2.614-2.485V4.642h8.855v0.467
		c-2.408,0-2.615,0.621-2.615,2.485v16.546h3.081c4.117,0,5.412-3.625,5.879-6.992h0.465L63.055,24.787z"/>
	<path d="M76.416,7.879l-4.351,8.39v5.542c0,1.863,0.208,2.484,2.616,2.484h0.259v0.492h-9.374v-0.492h0.259
		c2.408,0,2.615-0.621,2.615-2.484v-5.205L63.184,7.31c-0.932-1.63-1.864-2.123-3.263-2.201V4.642h8.882v0.467h-0.544
		c-1.58,0-1.632,1.244-0.906,2.563l4.324,7.873l4.04-7.924c0.751-1.476,0.363-2.511-1.19-2.511h-0.958V4.642h6.292v0.467
		C78.332,5.212,77.607,5.601,76.416,7.879"/>
</g>
<g>
	<path d="M124.531,8.915v16.001h-0.879L111.556,7.284v13.231c0,1.864,0.208,3.78,2.617,3.78h0.208v0.492h-6.166v-0.492
		c2.41,0,2.616-1.916,2.616-3.78V6.481c-0.751-0.881-1.45-1.373-2.589-1.373V4.642h5.88l9.685,14.139V8.915
		c0-1.864-0.207-3.78-2.615-3.78h-0.207V4.642h6.163v0.493C124.738,5.135,124.531,7.051,124.531,8.915"/>
	<path d="M136.701,24.787v-0.492c2.279,0,2.615-0.904,1.968-2.64l-1.218-3.289h-6.887l-0.803,2.331
		c-0.906,2.614-0.284,3.598,2.098,3.598v0.492h-6.421v-0.492c1.76-0.283,2.615-0.801,3.599-3.598l5.748-16.365h1.14l6.784,17.633
		c0.647,1.709,1.372,2.229,3.055,2.331v0.492H136.701z M133.878,8.76l-3.081,8.933h6.395L133.878,8.76z"/>
	<path d="M158.812,12.359c-0.232-3.159-0.828-7.095-4.634-7.095h-0.854v16.546c0,1.863,0.207,2.484,2.615,2.484h0.259v0.492h-9.374
		v-0.492h0.259c2.409,0,2.616-0.621,2.616-2.484V5.264h-0.881c-3.807,0-4.401,3.936-4.634,7.095h-0.544V4.642h15.743v7.717H158.812z
		"/>
	<path d="M160.418,24.787v-0.492c2.408,0,2.617-0.621,2.617-2.484V7.594c0-1.865-0.209-2.485-2.617-2.485V4.642h8.855v0.467
		c-2.408,0-2.615,0.621-2.615,2.485v14.216c0,1.863,0.207,2.484,2.615,2.484v0.492H160.418z"/>
	<path d="M179.658,25.15c-5.957,0-9.764-5.127-9.764-10.539c0-5.257,3.834-10.383,9.764-10.383c5.824,0,9.785,4.972,9.785,10.564
		C189.443,20.309,185.586,25.15,179.658,25.15 M179.605,4.85c-4.816,0-5.852,6.318-5.852,9.788c0,3.832,1.035,9.864,5.852,9.864
		c5.049,0,5.93-5.98,5.93-9.864C185.535,11.297,184.215,4.85,179.605,4.85"/>
	<path d="M205.859,8.56v16.002h-0.879L192.889,6.929V20.16c0,1.864,0.205,3.779,2.613,3.779h0.207v0.492h-6.162v-0.492
		c2.408,0,2.613-1.915,2.613-3.779V6.126c-0.748-0.881-1.449-1.373-2.586-1.373V4.287h5.877l9.684,14.138V8.56
		c0-1.864-0.207-3.78-2.615-3.78h-0.205V4.287h6.162V4.78C206.068,4.78,205.859,6.696,205.859,8.56"/>
</g>
<g>
	<path fill="#BCCEE1" d="M91.026,29.798c0,0,2.27-0.265,4.647,0C95.673,29.798,92.479,30.221,91.026,29.798z"/>
	<path fill="#BCCEE1" d="M89.653,29.5c0,0,6.301,0,7.146,0.126c0,0,0.934-0.23,1.056-0.32c0,0-5.421-0.774-9.504-0.245L89.653,29.5z
		"/>
	<path fill="#BCCEE1" d="M86.679,28.339l0.617,0.298c0,0,9.343-0.105,11.809,0.229c0,0,0.493-0.177,0.596-0.299
		C99.7,28.567,92.014,27.581,86.679,28.339z"/>
	<path fill="#BCCEE1" d="M85.43,27.6c0,0,8.379-1.232,15.591,0.263l-0.315,0.176c0,0-10.999-0.633-15.048-0.243L85.43,27.6z"/>
	<path fill="#BCCEE1" d="M84.427,26.984c0,0,14.237-0.44,17.403,0.368l0.336-0.229c0,0-9.132-1.567-17.967-0.369L84.427,26.984z"/>
	<path fill="#BCCEE1" d="M83.495,26.175c0,0,14.36-0.404,19.48,0.37l0.159-0.178c0,0-11.895-1.759-19.78-0.299L83.495,26.175z"/>
	<path fill="#BCCEE1" d="M82.688,25.347c0,0,14.112-0.404,21.149,0.387l0.089-0.105c0,0-12.476-2.022-21.365-0.404L82.688,25.347z"
		/>
	<path fill="#BCCEE1" d="M81.947,24.522c0,0,14.535-0.67,22.54,0.524l0.125-0.122c0,0-11.844-2.13-22.77-0.528L81.947,24.522z"/>
	<path fill="#BCCEE1" d="M81.312,23.711c0,0,17.457-0.81,23.792,0.562l0.104-0.141c0,0-12.261-2.568-23.963-0.527L81.312,23.711z"/>
	<path fill="#BCCEE1" d="M80.753,22.901c0,0,18.509-1.021,24.931,0.598l0.054-0.142c0,0-10.751-2.602-25.059-0.632L80.753,22.901z"
		/>
	<path fill="#BCCEE1" d="M80.294,22.111c0,0,18.623-1.232,25.883,0.587c0,0-7.577-2.984-26.001-0.764L80.294,22.111z"/>
	<path fill="#BCCEE1" d="M79.888,21.327c0,0,16.761-1.426,26.713,0.58c0,0-7.233-3.221-26.687-0.765L79.888,21.327z"/>
	<path fill="#BCCEE1" d="M79.573,20.481c0,0,15.942-1.32,27.396,0.687l0.051-0.131c0,0-13.091-2.985-27.501-0.661L79.573,20.481z"/>
	<path fill="#BCCEE1" d="M79.28,19.61c0,0,20.538-1.427,28.008,0.766c0,0-7.84-3.535-28.058-0.896L79.28,19.61z"/>
	<path fill="#BCCEE1" d="M79.096,18.82c0,0,15.019-1.718,28.453,0.765C107.548,19.585,98.679,15.898,79.096,18.82z"/>
	<path fill="#BCCEE1" d="M78.833,17.974c0,0,18.512-1.512,28.893,0.739C107.726,18.713,93.472,15.054,78.833,17.974z"/>
	<path fill="#BCCEE1" d="M78.69,17.163c0,0,13.657-1.583,29.249,0.706C107.938,17.869,96.957,14.032,78.69,17.163z"/>
	<path fill="#BCCEE1" d="M78.621,16.321c0,0,16.052-1.76,29.493,0.809C108.114,17.13,95.338,13.117,78.621,16.321z"/>
	<path fill="#BCCEE1" d="M78.594,15.467c0,0,16.311-1.796,29.591,0.817V16.1c0,0-8.715-3.59-29.591-0.792V15.467z"/>
	<path fill="#BCCEE1" d="M78.621,14.561c0,0,19.251-1.619,29.597,0.843l0.019-0.202c0,0-14.409-2.894-29.616-0.818V14.561z"/>
	<path fill="#BCCEE1" d="M78.656,13.749c0,0,17.53-2.427,29.561,0.776c0,0-7.038-3.414-29.561-0.983V13.749z"/>
	<path fill="#BCCEE1" d="M78.764,12.835c0,0,18.863-1.866,29.385,0.843v-0.137c0,0-13.655-3.556-29.35-0.848L78.764,12.835z"/>
	<path fill="#BCCEE1" d="M78.869,11.991c0,0,17.317-1.902,29.175,0.809C108.044,12.8,97.347,9.175,78.869,11.991z"/>
	<path fill="#BCCEE1" d="M79.149,11.006c0,0,15.908-1.444,28.719,0.845C107.868,11.851,96.253,8.717,79.149,11.006z"/>
	<path fill="#BCCEE1" d="M79.502,10.125c0,0,17.523-1.371,28.156,0.808C107.658,10.933,95.231,7.909,79.502,10.125z"/>
	<path fill="#BCCEE1" d="M79.818,9.247c0,0,20.307-1.232,27.521,0.95C107.339,10.197,98.188,7.38,79.818,9.247z"/>
	<path fill="#BCCEE1" d="M80.275,8.33c0,0,11.054-1.267,26.536,0.528C106.811,8.858,94.459,6.396,80.275,8.33z"/>
	<path fill="#BCCEE1" d="M80.803,7.416c0,0,15.805-0.493,25.516,0.493C106.319,7.909,93.191,6.042,80.803,7.416z"/>
	<path fill="#BCCEE1" d="M81.507,6.465c0,0,12.774-0.21,24.001,0.248C105.508,6.713,95.057,5.269,81.507,6.465z"/>
	<path fill="#BCCEE1" d="M82.071,5.657c0,0,16.963-0.248,22.909,0.28C104.979,5.937,96.958,4.388,82.071,5.657z"/>
	<path fill="#BCCEE1" d="M82.985,4.67c0,0,14.606-0.562,21.187,0.106C104.172,4.777,95.338,3.51,82.985,4.67z"/>
	<path fill="#BCCEE1" d="M84.078,3.755c0,0,9.062-0.738,19.391,0.387c0,0-8.474-1.796-19.116-0.669L84.078,3.755z"/>
	<path fill="#BCCEE1" d="M85.274,2.84c0,0,6.588-0.527,16.75,0.177c0,0-8.655-1.302-16.19-0.599L85.274,2.84z"/>
	<path fill="#BCCEE1" d="M86.611,1.925c0,0,10.244-0.562,14.184,0.315l-0.592-0.384c0,0-7.599-0.811-12.686-0.353L86.611,1.925z"/>
	<path fill="#BCCEE1" d="M88.406,1.08c0,0,7.424-0.246,10.137,0.178C98.543,1.258,92.873-0.396,88.406,1.08z"/>
	<g>
		<g>
			<path fill-rule="evenodd" clip-rule="evenodd" fill="#0085C5" d="M79.889,11.639c0,0,1.302,3.097,2.216,3.24h0.388l0.247-0.073
				c0,0,1.125,0.212,1.865-0.493l1.054-0.388l0.671-0.104h0.386c0,0,0.211-0.106,0.282,0.035c0.071,0.142,0.281,0.422,0.281,0.422
				l0.069,0.176c0,0,0.106,0.106,0.245,0.176c0.143,0.071-0.034,0.071,0.318,0.104c0.354,0.035,0.177,0,0.354,0.035
				c0.174,0.036,0.174,0.036,0.174,0.036l0.351,0.211l0.07,0.212l0.034,0.143l0.04,0.174c0,0,0,0.072,0.032,0.176
				c0.037,0.105,0.037,0.105,0.037,0.105l0.104,0.282l0.282,0.283l0.07,0.139l0.177,0.564l0.033,0.141l0.14,0.142l0.144,0.175
				l0.245,0.282l0.213,0.175l0.211,0.21l0.07,0.246l0.033,0.178l0.072,0.492l0.14,0.353c0,0,0,0.212,0,0.317
				c0,0.104,0.036,0.318,0.036,0.318l0.033,0.28v0.14c0,0,0,0.071,0,0.176s0,0.105,0,0.105l0.036,0.141c0,0,0.002-0.105,0.035,0.21
				c0.038,0.318,0.038,0.318,0.038,0.318s-0.811,0.949-0.774,2.463c0,0,0.736,1.021,0.774,1.724c0,0,0.174,1.479,0.458,1.725
				c0,0,0.914,1.408,1.089,2.146c0,0,0.037,0.493,1.444,0.282l0.775-0.105h0.422l0.211,0.036l0.209-0.213l0.282-0.14l0.21-0.177
				l0.143-0.245l0.071-0.211c0,0,0.947-0.529,1.374-0.809c0,0,0.139-0.285,0.174-0.707c0,0,0.456-0.386,0.704-0.527
				c0,0,0.527-0.633,0.599-1.514c0,0,0.385-0.843,0.983-0.879c0,0,0.989-0.211,1.585-1.371l0.213-0.671l0.03-0.494l0.037-0.314
				l0.107-0.318v-0.244c0,0-0.038,0,0-0.177c0.034-0.177,0.034-0.177,0.034-0.177l0.07-0.493v-0.385v-0.248l0.035-0.386l0.106-0.142
				l0.07-0.246l0.032-0.14l0.072-0.459c0.108-0.213,0.177-0.386,0.177-0.386l0.211-0.036l0.21-0.211l0.246-0.069l0.281-0.214
				c0.143-0.281,0.143-0.281,0.143-0.281l0.07-0.176l0.069-0.141l0.21-0.316l0.072-0.141l0.174-0.141l0.215-0.104l0.28-0.177
				l0.21-0.281l0.069-0.14l0.073-0.142l0.069-0.139l0.139-0.317l0.072-0.142l0.212-0.212l0.14-0.105l0.072-0.139
				c0,0,0.033,0,0.069-0.144c0.035-0.139,0.035-0.139,0.035-0.139l0.104-0.318c0,0,0.037-0.035,0.037-0.14s0,0.176,0-0.105
				s0-0.424,0-0.424c0-0.21-0.07-0.069,0-0.21c0.067-0.139,0.067-0.139,0.067-0.139l0.038-0.213l-0.705,0.213h-0.246l-0.389-0.037
				h-0.175l-0.423-0.141l-0.175-0.035l-0.141-0.072l-0.284-0.138l-0.032-0.143l-0.144-0.14l-0.104-0.177l-0.317-0.562l-0.07-0.142
				l-0.037-0.141l-0.104-0.209l-0.106-0.176l-0.21-0.213c0,0-0.108-0.032-0.139-0.139c-0.042-0.105-0.042-0.105-0.042-0.105
				l-0.208-0.176l-0.072-0.175l-0.175-0.176c0,0-0.141-0.071-0.141-0.177c0-0.104,0-0.104,0-0.104l-0.14-0.178l-0.104-0.176
				l-0.144-0.104l-0.104-0.178l-0.143-0.173l-0.103-0.354l-0.109-0.353l-0.035-0.14l-0.068-0.14l-0.106-0.28l-0.139-0.141
				l-0.073-0.249l-0.069-0.281l-0.036-0.14l-0.14-0.176L100.3,5.691l-0.175-0.246l-0.106-0.177l-0.072-0.177l-0.174-0.209
				c0,0,0.564-0.248,0.774,0.141l0.707,0.668l0.419,0.458c0,0,0,0.036,0.142,0.175c0.141,0.141,0.353,0.739,0.353,0.739v0.248
				c0,0-0.074,0.141,0,0.245c0.071,0.107,0.138,0.317,0.245,0.353s0.388,0.21,0.388,0.21s0.035,0.037,0.106,0.144
				c0.07,0.105-0.072-0.107,0.07,0.105c0.142,0.208,0.317,0.561,0.317,0.561s0.068,0.001,0.14,0.247
				c0.07,0.247,0.141,0.422,0.141,0.422s0.073,0.316,0.108,0.423c0.031,0.104,0.527,0.739,0.527,0.739l0.104,0.173l0.175,0.39
				l0.105,0.177l0.038,0.14l0.245,0.035l0.071-0.175l0.281-0.105h0.281c0,0,0.247,0.033,0.315-0.072
				c0.073-0.106,0.073-0.106,0.073-0.106l0.177-0.07l0.175-0.071h0.138c0.178-0.211,0.178-0.211,0.178-0.211l0.14-0.104
				c0.143-0.141,0.284-0.213,0.388-0.246c0.105-0.037,0.105-0.037,0.105-0.037l0.213-0.07l0.069-0.177c0,0-0.949-2.357-1.514-2.991
				h-0.21l-0.106-0.211v-0.14l-0.141-0.175l-0.212-0.177l-0.456-0.212l-0.036-0.175L104.7,5.937V5.796l-0.035-0.139l-0.035-0.142
				c0,0-0.109-0.106-0.109-0.211c0-0.106-2.708-2.958-5.559-3.941l-0.139,0.07h-0.142h-0.211h-0.175l-0.177-0.035l-0.355,0.176
				l-0.28,0.037h-0.175l-0.141,0.033l-0.144-0.106l-0.067-0.211l-0.109-0.142l-0.104-0.174l0.07-0.212l0.034-0.211
				c0,0-6.226-1.477-11.365,2.007c0,0,0.388,0.072,0.388,0.281c0,0,0.282-0.105,0.385-0.317l0.248-0.035l0.142-0.07h0.173
				c0,0,0.107,0.035,0.213,0c0.104-0.035,0.315-0.107,0.315-0.107h0.211c0,0,0.177-0.032,0.283-0.105
				c0.106-0.068-0.035,0.073,0.106-0.068c0.14-0.141,0.14-0.141,0.14-0.141l0.037-0.14V1.752l0.104-0.142l0.177-0.107h0.247
				l0.208,0.071l0.106-0.142l0.14-0.141l0.178-0.071l0.174-0.104c0.247-0.105,0.247-0.105,0.247-0.105l0.141-0.072h0.176h0.142
				l0.316-0.035c0.212,0,0.212,0,0.212,0l0.281-0.106l0.316,0.036h0.177l0.143-0.036l0.281,0.247l0.174,0.071
				c0.245,0.175,0.245,0.175,0.245,0.175h0.142c0,0,0.139,0.035,0.282,0.071c0.139,0.035,0.28,0.07,0.28,0.07l0.211,0.211
				l0.038,0.14l-0.178,0.175l-0.247,0.036l-0.14,0.036l-0.352,0.069l0.14,0.245l0.141,0.037h0.141l0.21-0.21l0.212-0.072
				c0,0-0.038-0.036,0.14-0.141c0.179-0.103,0.179-0.103,0.179-0.103l0,0l0.139-0.142l0.178-0.07l0.139-0.106l-0.139-0.14
				l-0.178-0.071l-0.248-0.069l-0.176-0.072l-0.14-0.032L92.944,1.08l-0.175-0.104l-0.21-0.104C92.452,0.66,92.31,0.693,92.31,0.693
				l0.142-0.034l0.14-0.105h0.281l0.178,0.07l0.212,0.104l0.139,0.106h0.143c0.315,0.105,0.315,0.105,0.315,0.105l0.28,0.106
				l0.143,0.034c0.104,0.247,0.104,0.389,0.104,0.389v0.175l0.178,0.212c0.21,0.103,0.21,0.103,0.21,0.103l0.139,0.141
				c0,0,0,0.353,0.423,0.353l0.247,0.105l0.139-0.14l-0.035-0.209l-0.142-0.073l0.071-0.141l0.141-0.036l0.07-0.139L95.689,1.68
				l-0.174-0.142c0,0,0.07-0.175,0.209-0.069c0.14,0.105,0.14,0.105,0.14,0.105l0.247,0.037l0.177-0.037l0.143-0.176l0.208-0.106
				c0.107,0.246,0.107,0.246,0.107,0.246l0.07,0.142l-0.07,0.315l0.142,0.177l0.104,0.141l0.104,0.209l0.389,0.144
				c0.141-0.037,0.141-0.037,0.141-0.037l0.386-0.035l0.284-0.036l0.138-0.07c0.213,0.106,0.213,0.106,0.213,0.106l0.208,0.035
				l0.39-0.035l0.21-0.071c0,0,0.07,0.071,0.317,0.071c0.247,0,0.106-0.281,0.247,0c0.14,0.281,0.106,0.14,0.14,0.281
				c0.035,0.142,0.035,0.142,0.035,0.142s-0.069,0.069-0.105,0.175c-0.035,0.105-0.035,0.105-0.035,0.105l-0.175,0.281l-0.14,0.282
				L99.49,4.036l-0.424,0.072h-0.139l-0.389-0.036l-0.315-0.036h-0.141l-0.176,0.106L97.59,4.213h-0.212l-0.209-0.177
				c0,0,0-0.068-0.249-0.105c-0.244-0.036-0.244-0.036-0.244-0.036s0.139,0-0.176,0c-0.314,0-0.314,0-0.314,0h-0.18L95.83,3.792
				l-0.245-0.144l-0.281-0.07l-0.214-0.034L94.845,3.51h-0.457c-0.281,0.245-0.281,0.386-0.281,0.386L94.07,4.036
				c-0.141,0.072-0.141,0.072-0.141,0.072s0,0-0.14-0.072c-0.14-0.068-0.14-0.068-0.14-0.068l-0.178-0.175l-0.141-0.038
				l-0.178,0.038l-0.068,0.139c0,0,0,0.037-0.141,0c-0.139-0.036-0.139-0.036-0.139-0.036l-0.106-0.211l-0.247-0.14
				c0,0,0.035-0.035-0.249-0.035c-0.278,0-0.667-0.141-0.667-0.141L91.36,3.265l-0.176-0.036l-0.141-0.107l-0.142-0.246
				c0,0,0.037-0.105,0.073-0.209c0.033-0.108-0.143-0.213-0.143-0.213h-0.208h-0.211c0,0-0.318,0.035-0.425,0.035
				c-0.105,0-0.281,0.035-0.281,0.035l-0.282,0.035c0,0-0.106,0-0.209,0c-0.108,0-0.388,0.036-0.388,0.036h-0.248l-0.174,0.035
				l-0.214,0.037l-0.173,0.104h-0.248h-0.177l-0.21,0.036L87.209,2.84l-0.211,0.106l-0.21,0.14h-0.283h-0.212
				c0,0-0.038-0.035-0.211,0c-0.177,0.035-0.177,0.035-0.177,0.035l-0.314,0.144l-0.353,0.104c0,0-0.176,0.035-0.25,0.141
				C84.92,3.615,84.92,3.615,84.92,3.615s-0.175,0.034-0.212,0.14c-0.033,0.106-0.281,0.249-0.281,0.249l-0.21,0.173
				C83.97,4.283,83.97,4.283,83.97,4.283L83.724,4.67c0,0-0.036,0.07-0.175,0.142c-0.141,0.07,0.034-0.072-0.141,0.07
				c-0.177,0.141-0.177,0.141-0.177,0.141l0,0l-0.354,0.246L82.633,5.41l-0.211,0.14L82.07,6.008l-0.249,0.176l-0.174,0.14
				c0,0-0.034-0.105-0.141,0.141c-0.106,0.248-0.212,0.493-0.212,0.493l-0.137,0.318l-0.144,0.14l-0.034,0.493c0,0,0,0.036,0,0.142
				c0,0.105,0.071-0.036-0.072,0.244c-0.142,0.281-0.278,0.422-0.278,0.422L80.417,9.21c0,0-0.07,0.071-0.07,0.211
				c0,0.14,0,0.563,0,0.563c0,0.176,0,0.176,0,0.176l-0.072,0.493l-0.141,0.209c0,0-0.105,0.175-0.14,0.282
				c-0.035,0.104-0.105,0.353-0.105,0.353"/>
			<path fill-rule="evenodd" clip-rule="evenodd" fill="#0085C5" d="M102.957,24.573c0,0,0.028,0.343-0.079,0.501
				c-0.104,0.158-0.158,0.344-0.158,0.344c-0.08,0.132-0.08,0.263-0.08,0.263l-0.106,0.395c0,0-0.026,0.212-0.051,0.292
				c-0.026,0.08-0.083,0.288-0.083,0.288s0.029,0.133,0,0.213c-0.024,0.08-0.024,0.08-0.024,0.08s3.167-2.428,2.956-5.042
				c0,0-0.21,0.105-0.21,0.315c0,0.213-0.267,0.319-0.292,0.396c-0.026,0.08,0.08-0.026-0.026,0.08
				c-0.104,0.106-0.262,0.291-0.262,0.291l-0.158,0.104l-0.109,0.079l-0.104,0.054l-0.134,0.025l-0.104,0.027l-0.211,0.024
				l-0.13,0.054c-0.267,0.107-0.267,0.107-0.267,0.107s-0.025,0.025-0.131,0.078c-0.107,0.055-0.21,0.132-0.21,0.132
				s-0.028,0.078-0.028,0.157c0,0.08-0.023,0.24-0.023,0.24l0.077,0.264L102.957,24.573z"/>
		</g>
		<g>
			<defs>
				<path id="SVGID_1_" d="M102.389,9.704l0.384,0.421l0.284,0.302l0.034,0.263l0.177,0.229c0,0,0.159,0.318,0.159,0.369
					c0,0.053,0.296,0.458,0.296,0.458s0.141,0.244,0.18,0.282c0.031,0.033,0.068,0.07,0.123,0.088
					c0.051,0.018,0.475,0.157,0.475,0.157l0.637,0.212l0.491-0.071l0.317-0.016l0.21-0.037l0.284-0.123c0,0,0.033,0.071-0.037,0.213
					c-0.072,0.139-0.052,0.14-0.052,0.192c0,0.053,0.017,0.176,0.017,0.248c0,0.067,0.018,0.209,0.018,0.262
					c0,0.053-0.018,0.354-0.018,0.354s-0.087,0.156-0.104,0.209c-0.016,0.053-0.125,0.089-0.107,0.21
					c0.018,0.125-0.142,0.283-0.142,0.283l-0.068,0.178l-0.247,0.194c0,0-0.091-0.055-0.108,0.086
					c-0.015,0.14-0.105,0.317-0.122,0.371c-0.02,0.051-0.196,0.281-0.196,0.281s-0.069,0.159-0.105,0.211
					c-0.03,0.053-0.139,0.156-0.139,0.156l-0.107,0.107l-0.175,0.069l-0.143,0.106l-0.246,0.14c0,0-0.034,0.106-0.07,0.141
					c-0.035,0.036-0.105,0.125-0.142,0.176c-0.033,0.054,0,0.07-0.07,0.14c-0.067,0.072-0.105,0.09-0.158,0.177
					c-0.055,0.089-0.124,0.421-0.124,0.421l-0.121,0.089c-0.16,0.125-0.247,0.142-0.247,0.142l-0.071,0.052l-0.141,0.089
					l-0.158,0.017l-0.124,0.07l-0.09,0.071l-0.087,0.125l-0.102,0.44l-0.037,0.104c0,0-0.106,0.141-0.106,0.192
					c0,0.053-0.019,0.37-0.019,0.37l-0.033,0.104l-0.04,0.106l-0.031,0.072l-0.037,0.245c0,0,0.037,0.106,0.019,0.176
					c-0.019,0.071,0,0.124-0.019,0.176c-0.017,0.054-0.036,0.194-0.036,0.194s0.068-0.02,0.036,0.086
					c-0.036,0.107-0.07,0.214-0.07,0.354c0,0.14-0.055,0.369-0.055,0.369s0.055,0.088,0.019,0.125
					c-0.036,0.035-0.104,0.314-0.104,0.314s0,0.021,0,0.073c0,0.052,0.016,0.086,0,0.175c-0.019,0.086,0.018,0.3-0.037,0.314
					c-0.053,0.021-0.053,0.266-0.053,0.266s0.021,0.018,0,0.088c-0.014,0.07-0.086,0.39-0.086,0.39s0,0.034-0.018,0.104
					c-0.019,0.068,0.018,0.034-0.019,0.141c-0.036,0.104-0.068,0.176-0.068,0.176l-5.654,0.367l-2.066-2.85l-0.896-6.282
					l-0.209-4.011l3.909-3.327l2.433,1.901l1.851,0.475L102.389,9.704z"/>
			</defs>
			<clipPath id="SVGID_2_">
				<use xlink:href="#SVGID_1_"  overflow="visible"/>
			</clipPath>
			
				<radialGradient id="SVGID_3_" cx="102.1475" cy="16.373" r="6.6519" gradientTransform="matrix(1.0012 0 0 1 -0.8347 0)" gradientUnits="userSpaceOnUse">
				<stop  offset="0" style="stop-color:#FFFFFF"/>
				<stop  offset="0.237" style="stop-color:#B1D9ED"/>
				<stop  offset="0.4837" style="stop-color:#66B6DC"/>
				<stop  offset="0.6886" style="stop-color:#2F9BD0"/>
				<stop  offset="0.8406" style="stop-color:#0D8BC8"/>
				<stop  offset="0.9231" style="stop-color:#0085C5"/>
			</radialGradient>
			<ellipse clip-path="url(#SVGID_2_)" fill="url(#SVGID_3_)" cx="101.436" cy="16.374" rx="6.659" ry="6.652"/>
		</g>
	</g>
</g>
</svg>
