<?xml version="1.0" encoding="utf-8"?>
<!-- Generator: Adobe Illustrator 15.0.0, SVG Export Plug-In . SVG Version: 6.00 Build 0)  -->
<!DOCTYPE svg PUBLIC "-//W3C//DTD SVG 1.1//EN" "http://www.w3.org/Graphics/SVG/1.1/DTD/svg11.dtd">
<svg version="1.1" id="Layer_1" xmlns="http://www.w3.org/2000/svg" xmlns:xlink="http://www.w3.org/1999/xlink" x="0px" y="0px"
	 width="36px" height="4px" viewBox="0 0 36 4" enable-background="new 0 0 36 4" xml:space="preserve">
<g>
	<g>
		<path fill="#004D6A" d="M1.585,3.932H0V3.836c0.466,0,0.505-0.119,0.505-0.474V0.644c0-0.357-0.039-0.476-0.505-0.476v-0.09h1.54
			c1.281,0,1.98,0.739,1.98,1.868C3.521,3.135,2.825,3.932,1.585,3.932 M1.256,0.203H1.155v3.604h0.081
			c1.075,0,1.52-0.633,1.52-1.841C2.755,1.039,2.46,0.203,1.256,0.203"/>
		<path fill="#004D6A" d="M5.32,3.932V3.836c0.426,0,0.541-0.139,0.401-0.504L5.486,2.704h-1.33L4,3.148
			c-0.169,0.49-0.064,0.688,0.411,0.688v0.096h-1.24V3.836c0.35-0.053,0.505-0.162,0.689-0.688L4.97,0.02h0.22l1.33,3.42
			c0.125,0.317,0.271,0.381,0.51,0.396v0.096H5.32z M4.795,0.866L4.2,2.575h1.235L4.795,0.866z"/>
		<path fill="#004D6A" d="M7.156,3.932V3.836c0.463,0,0.504-0.119,0.504-0.474V0.644c0-0.357-0.041-0.476-0.504-0.476v-0.09h1.71
			v0.09C8.4,0.167,8.36,0.287,8.36,0.644v2.719c0,0.354,0.041,0.474,0.506,0.474v0.096H7.156z"/>
		<path fill="#004D6A" d="M12.101,3.932h-2.96V3.836c0.466,0,0.504-0.119,0.504-0.474V0.644c0-0.357-0.038-0.476-0.504-0.476v-0.09
			h1.71v0.09c-0.466,0-0.506,0.119-0.506,0.476v3.163h0.596c0.794,0,1.045-0.692,1.135-1.336h0.09L12.101,3.932z"/>
		<path fill="#004D6A" d="M14.682,0.698l-0.84,1.604v1.06c0,0.354,0.039,0.474,0.505,0.474h0.049v0.096h-1.81V3.836h0.05
			c0.465,0,0.504-0.119,0.504-0.474V2.367l-1.015-1.778c-0.18-0.312-0.359-0.407-0.63-0.421v-0.09h1.715v0.09h-0.105
			c-0.303,0-0.315,0.239-0.175,0.491l0.836,1.506l0.779-1.515c0.146-0.283,0.07-0.482-0.229-0.482h-0.186v-0.09h1.215v0.09
			C15.052,0.188,14.912,0.262,14.682,0.698"/>
	</g>
	<g>
		<path fill="#004D6A" d="M19.789,0.896v3.061h-0.17l-2.335-3.374v2.531c0,0.355,0.039,0.722,0.505,0.722h0.041v0.096h-1.191V3.836
			c0.465,0,0.505-0.366,0.505-0.722V0.431c-0.146-0.168-0.28-0.263-0.501-0.263v-0.09h1.137l1.869,2.705V0.896
			c0-0.357-0.041-0.723-0.504-0.723h-0.041V0.078h1.191v0.096C19.829,0.173,19.789,0.54,19.789,0.896"/>
		<path fill="#004D6A" d="M22.139,3.932V3.836c0.441,0,0.506-0.173,0.381-0.504l-0.236-0.628h-1.329l-0.155,0.444
			c-0.174,0.5-0.055,0.688,0.406,0.688v0.096h-1.242V3.836c0.342-0.053,0.508-0.152,0.697-0.688L21.77,0.02h0.22L23.3,3.391
			c0.124,0.326,0.264,0.427,0.59,0.445v0.096H22.139z M21.596,0.866l-0.598,1.708h1.236L21.596,0.866z"/>
		<path fill="#004D6A" d="M26.41,1.555c-0.046-0.605-0.16-1.356-0.896-1.356H25.35v3.163c0,0.354,0.04,0.474,0.505,0.474h0.049
			v0.096h-1.811V3.836h0.051c0.466,0,0.506-0.119,0.506-0.474V0.199h-0.17c-0.736,0-0.85,0.75-0.896,1.356h-0.104V0.078h3.04v1.478
			H26.41z"/>
		<path fill="#004D6A" d="M26.72,3.932V3.836c0.465,0,0.504-0.119,0.504-0.474V0.644c0-0.357-0.039-0.476-0.504-0.476v-0.09h1.71
			v0.09c-0.466,0-0.505,0.119-0.505,0.476v2.719c0,0.354,0.039,0.474,0.505,0.474v0.096H26.72z"/>
		<path fill="#004D6A" d="M30.437,4c-1.152,0-1.887-0.98-1.887-2.014C28.55,0.981,29.29,0,30.437,0c1.123,0,1.889,0.95,1.889,2.02
			C32.325,3.074,31.579,4,30.437,4 M30.425,0.118c-0.931,0-1.131,1.209-1.131,1.873c0,0.731,0.2,1.885,1.131,1.885
			c0.976,0,1.145-1.143,1.145-1.885C31.569,1.351,31.315,0.118,30.425,0.118"/>
		<path fill="#004D6A" d="M35.495,0.828v3.059h-0.17l-2.336-3.371v2.531c0,0.355,0.04,0.721,0.506,0.721h0.039v0.096h-1.189V3.768
			c0.465,0,0.505-0.365,0.505-0.721V0.363C32.704,0.195,32.569,0.1,32.351,0.1V0.011h1.135l1.87,2.704V0.828
			c0-0.355-0.04-0.722-0.507-0.722h-0.038V0.011H36v0.095C35.534,0.106,35.495,0.472,35.495,0.828"/>
	</g>
</g>
</svg>
