<?xml version="1.0" encoding="utf-8"?>
<!-- Generator: Adobe Illustrator 15.0.0, SVG Export Plug-In . SVG Version: 6.00 Build 0)  -->
<!DOCTYPE svg PUBLIC "-//W3C//DTD SVG 1.1//EN" "http://www.w3.org/Graphics/SVG/1.1/DTD/svg11.dtd">
<svg version="1.1" id="Layer_1" xmlns="http://www.w3.org/2000/svg" xmlns:xlink="http://www.w3.org/1999/xlink" x="0px" y="0px"
	 width="98px" height="74px" viewBox="0 0 98 74" enable-background="new 0 0 98 74" xml:space="preserve">
<g>
	<defs>
		<rect id="SVGID_1_" width="98" height="74"/>
	</defs>
	<clipPath id="SVGID_2_">
		<use xlink:href="#SVGID_1_"  overflow="visible"/>
	</clipPath>
	<g clip-path="url(#SVGID_2_)">
		<path fill="#BBCDE0" d="M41.866,84.307c0,0,7.352-0.854,15.054,0C56.92,84.307,46.571,85.679,41.866,84.307z"/>
		<path fill="#BBCDE0" d="M37.413,83.34c0,0,20.413,0,23.161,0.4c0,0,3.021-0.741,3.42-1.032c0,0-17.567-2.505-30.801-0.795
			L37.413,83.34z"/>
		<path fill="#BBCDE0" d="M27.772,79.58l2.001,0.965c0,0,30.279-0.342,38.271,0.744c0,0,1.598-0.574,1.928-0.969
			C69.973,80.32,45.061,77.123,27.772,79.58z"/>
		<path fill="#BBCDE0" d="M23.728,77.183c0,0,27.151-3.999,50.526,0.853l-1.021,0.57c0,0-35.646-2.051-48.765-0.795L23.728,77.183z"
			/>
		<path fill="#BBCDE0" d="M20.477,75.186c0,0,46.137-1.428,56.401,1.197l1.087-0.744c0,0-29.594-5.076-58.228-1.199L20.477,75.186z"
			/>
		<path fill="#BBCDE0" d="M17.456,72.563c0,0,46.538-1.31,63.134,1.198l0.512-0.575c0,0-38.55-5.699-64.103-0.964L17.456,72.563z"/>
		<path fill="#BBCDE0" d="M14.835,69.878c0,0,45.739-1.31,68.545,1.259l0.289-0.342c0,0-40.435-6.559-69.237-1.311L14.835,69.878z"
			/>
		<path fill="#BBCDE0" d="M12.438,67.205c0,0,47.109-2.169,73.053,1.705l0.404-0.396c0,0-38.388-6.902-73.799-1.713L12.438,67.205z"
			/>
		<path fill="#BBCDE0" d="M10.382,64.578c0,0,56.575-2.621,77.104,1.828l0.339-0.459c0,0-39.739-8.322-77.663-1.711L10.382,64.578z"
			/>
		<path fill="#BBCDE0" d="M8.57,61.957c0,0,59.983-3.308,80.799,1.939l0.175-0.459c0,0-34.842-8.438-81.212-2.051L8.57,61.957z"/>
		<path fill="#BBCDE0" d="M7.078,59.389c0,0,60.359-3.99,83.885,1.91c0,0-24.553-9.67-84.262-2.479L7.078,59.389z"/>
		<path fill="#BBCDE0" d="M5.762,56.85c0,0,54.323-4.619,86.575,1.881c0,0-23.441-10.438-86.488-2.479L5.762,56.85z"/>
		<path fill="#BBCDE0" d="M4.745,54.109c0,0,51.663-4.276,88.786,2.227l0.17-0.425c0,0-42.432-9.669-89.132-2.142L4.745,54.109z"/>
		<path fill="#BBCDE0" d="M3.798,51.287c0,0,66.556-4.618,90.764,2.482c0,0-25.409-11.459-90.932-2.904L3.798,51.287z"/>
		<path fill="#BBCDE0" d="M3.196,48.725c0,0,48.675-5.562,92.215,2.482C95.411,51.207,66.664,39.259,3.196,48.725z"/>
		<path fill="#BBCDE0" d="M2.348,45.987c0,0,59.99-4.902,93.633,2.396C95.98,48.384,49.788,36.52,2.348,45.987z"/>
		<path fill="#BBCDE0" d="M1.885,43.361c0,0,44.258-5.131,94.787,2.283C96.672,45.645,61.081,33.212,1.885,43.361z"/>
		<path fill="#BBCDE0" d="M1.655,40.627c0,0,52.024-5.7,95.587,2.625C97.242,43.252,55.834,30.246,1.655,40.627z"/>
		<path fill="#BBCDE0" d="M1.571,37.856c0,0,52.863-5.816,95.901,2.655v-0.599c0,0-28.243-11.635-95.901-2.567V37.856z"/>
		<path fill="#BBCDE0" d="M1.655,34.927c0,0,62.394-5.248,95.924,2.733l0.058-0.655c0,0-46.701-9.382-95.981-2.652V34.927z"/>
		<path fill="#BBCDE0" d="M1.773,32.296c0,0,56.809-7.868,95.806,2.51c0,0-22.812-11.061-95.806-3.188V32.296z"/>
		<path fill="#BBCDE0" d="M2.124,29.334c0,0,61.13-6.046,95.232,2.732v-0.448c0,0-44.256-11.522-95.124-2.742L2.124,29.334z"/>
		<path fill="#BBCDE0" d="M2.465,26.596c0,0,56.117-6.159,94.549,2.625C97.014,29.221,62.348,17.471,2.465,26.596z"/>
		<path fill="#BBCDE0" d="M3.372,23.405c0,0,51.551-4.678,93.066,2.737C96.438,26.143,58.801,15.988,3.372,23.405z"/>
		<path fill="#BBCDE0" d="M4.517,20.549c0,0,56.788-4.445,91.249,2.623C95.766,23.171,55.492,13.368,4.517,20.549z"/>
		<path fill="#BBCDE0" d="M5.54,17.702c0,0,65.813-3.993,89.188,3.077C94.728,20.779,65.076,11.654,5.54,17.702z"/>
		<path fill="#BBCDE0" d="M7.021,14.732c0,0,35.819-4.103,85.997,1.713C93.018,16.445,52.988,8.46,7.021,14.732z"/>
		<path fill="#BBCDE0" d="M8.731,11.769c0,0,51.218-1.598,82.693,1.6C91.425,13.368,48.881,7.315,8.731,11.769z"/>
		<path fill="#BBCDE0" d="M11.011,8.689c0,0,41.399-0.686,77.784,0.799C88.795,9.489,54.923,4.812,11.011,8.689z"/>
		<path fill="#BBCDE0" d="M12.842,6.069c0,0,54.97-0.8,74.244,0.906C87.086,6.975,61.087,1.957,12.842,6.069z"/>
		<path fill="#BBCDE0" d="M15.8,2.873c0,0,47.336-1.823,68.667,0.34C84.467,3.213,55.834-0.889,15.8,2.873z"/>
		<path fill="#BBCDE0" d="M19.342-0.095c0,0,29.373-2.392,62.846,1.254c0,0-27.457-5.817-61.95-2.165L19.342-0.095z"/>
		<path fill="#BBCDE0" d="M23.22-3.062c0,0,21.351-1.706,54.291,0.575c0,0-28.055-4.22-52.478-1.939L23.22-3.062z"/>
		<path fill="#BBCDE0" d="M27.551-6.024c0,0,33.203-1.823,45.967,1.024l-1.916-1.249c0,0-24.624-2.625-41.11-1.145L27.551-6.024z"/>
		<path fill="#BBCDE0" d="M33.373-8.761c0,0,24.06-0.8,32.848,0.574C66.221-8.187,47.85-13.552,33.373-8.761z"/>
		<g>
			<g>
				<path fill-rule="evenodd" clip-rule="evenodd" fill="#0084C4" d="M5.769,25.456c0,0,4.22,10.036,7.182,10.5h1.256l0.8-0.234
					c0,0,3.649,0.688,6.046-1.597l3.416-1.257l2.172-0.337h1.252c0,0,0.687-0.345,0.917,0.114c0.229,0.457,0.911,1.368,0.911,1.368
					l0.225,0.57c0,0,0.346,0.346,0.795,0.572c0.462,0.227-0.108,0.227,1.032,0.339c1.144,0.114,0.57,0,1.144,0.114
					c0.567,0.116,0.567,0.116,0.567,0.116l1.141,0.684l0.228,0.686l0.111,0.463l0.122,0.566c0,0,0,0.229,0.108,0.568
					c0.116,0.342,0.116,0.342,0.116,0.342l0.338,0.91l0.916,0.916l0.229,0.454l0.574,1.826l0.107,0.458l0.454,0.457l0.463,0.566
					l0.794,0.912l0.69,0.569l0.682,0.684l0.23,0.798l0.108,0.574l0.232,1.598l0.455,1.141c0,0,0,0.682,0,1.023
					s0.117,1.031,0.117,1.031l0.107,0.908v0.457c0,0,0,0.225,0,0.57c0,0.342,0,0.342,0,0.342l0.116,0.455
					c0,0,0.004-0.338,0.112,0.685c0.121,1.028,0.121,1.028,0.121,1.028s-2.626,3.079-2.509,7.984c0,0,2.388,3.305,2.509,5.588
					c0,0,0.562,4.789,1.481,5.59c0,0,2.963,4.564,3.533,6.957c0,0,0.117,1.598,4.678,0.911l2.514-0.341h1.369l0.682,0.117
					l0.682-0.688l0.912-0.455l0.682-0.573l0.463-0.794l0.229-0.687c0,0,3.074-1.712,4.454-2.622c0,0,0.445-0.916,0.562-2.285
					c0,0,1.478-1.252,2.277-1.709c0,0,1.714-2.057,1.943-4.906c0,0,1.252-2.734,3.188-2.852c0,0,3.201-0.682,5.138-4.443
					l0.688-2.172l0.104-1.598l0.115-1.023l0.351-1.028v-0.795c0,0-0.12,0,0-0.573c0.114-0.572,0.114-0.572,0.114-0.572l0.223-1.596
					v-1.254v-0.799l0.117-1.251l0.34-0.464l0.23-0.789l0.104-0.458l0.233-1.485c0.344-0.688,0.574-1.252,0.574-1.252l0.683-0.118
					l0.682-0.682l0.797-0.226l0.912-0.689c0.464-0.912,0.464-0.912,0.464-0.912l0.229-0.57l0.225-0.456l0.68-1.024l0.231-0.459
					l0.564-0.457l0.696-0.341l0.911-0.57l0.683-0.911l0.219-0.453l0.239-0.458l0.222-0.453l0.455-1.028l0.229-0.461l0.69-0.683
					l0.454-0.342l0.229-0.454c0,0,0.112,0,0.229-0.461c0.107-0.449,0.107-0.449,0.107-0.449l0.346-1.034
					c0,0,0.116-0.111,0.116-0.453c0-0.34,0,0.572,0-0.34c0-0.912,0-1.37,0-1.37c0-0.686-0.229-0.227,0-0.686
					c0.222-0.453,0.222-0.453,0.222-0.453l0.119-0.684l-2.282,0.684h-0.796l-1.264-0.118h-0.564l-1.368-0.458l-0.569-0.108
					l-0.455-0.233l-0.92-0.455l-0.103-0.457l-0.467-0.454l-0.336-0.576l-1.028-1.82l-0.229-0.458l-0.117-0.458l-0.338-0.684
					l-0.34-0.568l-0.688-0.688c0,0-0.344-0.107-0.45-0.452c-0.127-0.343-0.127-0.343-0.127-0.343l-0.674-0.568l-0.232-0.57
					l-0.572-0.57c0,0-0.453-0.229-0.453-0.575c0-0.341,0-0.341,0-0.341l-0.454-0.57L76.6,15.988l-0.463-0.341l-0.336-0.575
					l-0.464-0.564l-0.335-1.14l-0.346-1.146l-0.119-0.454l-0.218-0.456l-0.345-0.907l-0.456-0.458l-0.233-0.805l-0.223-0.912
					l-0.117-0.453l-0.448-0.569l-0.581-1.029l-0.562-0.799l-0.348-0.569l-0.234-0.569l-0.563-0.688c0,0,1.825-0.799,2.509,0.457
					l2.285,2.169l1.363,1.481c0,0,0,0.116,0.459,0.569c0.456,0.458,1.141,2.397,1.141,2.397v0.799c0,0-0.234,0.453,0,0.794
					c0.231,0.347,0.453,1.029,0.794,1.146c0.346,0.115,1.261,0.681,1.261,0.681s0.112,0.118,0.342,0.459
					c0.229,0.34-0.234-0.341,0.229,0.34c0.457,0.683,1.023,1.823,1.023,1.823s0.225,0.005,0.457,0.799
					c0.223,0.798,0.454,1.369,0.454,1.369s0.233,1.029,0.351,1.368c0.103,0.341,1.709,2.397,1.709,2.397l0.338,0.566l0.569,1.257
					l0.342,0.574l0.116,0.454l0.795,0.111l0.232-0.565l0.912-0.341h0.906c0,0,0.803,0.114,1.021-0.232
					c0.24-0.341,0.24-0.341,0.24-0.341l0.569-0.226l0.57-0.232h0.45c0.577-0.683,0.577-0.683,0.577-0.683l0.448-0.342
					c0.464-0.457,0.922-0.688,1.257-0.8c0.343-0.116,0.343-0.116,0.343-0.116l0.691-0.226l0.225-0.573c0,0-3.081-7.64-4.908-9.696
					h-0.682l-0.345-0.683V10.06l-0.458-0.571l-0.688-0.57l-1.476-0.688l-0.118-0.569l-0.336-0.687V6.521L86.06,6.069l-0.11-0.458
					c0,0-0.351-0.341-0.351-0.687c0-0.346-8.774-9.583-18.019-12.771l-0.447,0.226H66.67h-0.682h-0.566l-0.574-0.112l-1.149,0.568
					l-0.907,0.117h-0.57l-0.453,0.112L61.305-7.28l-0.218-0.683L60.731-8.42L60.395-8.99l0.233-0.688l0.104-0.683
					c0,0-20.177-4.785-36.829,6.503c0,0,1.257,0.229,1.257,0.912c0,0,0.911-0.341,1.248-1.027l0.803-0.113l0.458-0.229h0.565
					c0,0,0.345,0.113,0.687,0c0.335-0.112,1.023-0.345,1.023-0.345h0.687c0,0,0.57-0.108,0.911-0.341
					c0.346-0.225-0.107,0.233,0.346-0.225c0.454-0.457,0.454-0.457,0.454-0.457l0.116-0.455v-0.453l0.342-0.458l0.574-0.346h0.799
					l0.678,0.229l0.341-0.456l0.454-0.458l0.578-0.226l0.567-0.341c0.798-0.344,0.798-0.344,0.798-0.344l0.458-0.23h0.566h0.461
					l1.025-0.111c0.687,0,0.687,0,0.687,0l0.912-0.346l1.022,0.116h0.57l0.462-0.116l0.911,0.803l0.564,0.229
					c0.796,0.567,0.796,0.567,0.796,0.567h0.461c0,0,0.45,0.115,0.916,0.232c0.45,0.114,0.908,0.226,0.908,0.226l0.681,0.686
					l0.121,0.454l-0.575,0.565l-0.799,0.117l-0.453,0.117l-1.14,0.224l0.454,0.799l0.458,0.115h0.458l0.683-0.681l0.687-0.233
					c0,0-0.125-0.112,0.454-0.458c0.578-0.333,0.578-0.333,0.578-0.333l0,0l0.451-0.461l0.572-0.225L51.39-7.28l-0.454-0.453
					l-0.572-0.23L49.56-8.187L48.989-8.42l-0.454-0.108l-0.457-0.233l-0.566-0.342l-0.682-0.34
					c-0.346-0.683-0.807-0.575-0.807-0.575l0.461-0.108l0.454-0.342h0.912l0.574,0.224l0.686,0.342l0.45,0.341h0.466
					c1.019,0.341,1.019,0.341,1.019,0.341l0.913,0.346l0.461,0.113c0.336,0.798,0.336,1.256,0.336,1.256v0.57l0.578,0.687
					c0.685,0.333,0.685,0.333,0.685,0.333l0.448,0.458c0,0,0,1.144,1.369,1.144l0.803,0.342l0.453-0.454l-0.115-0.682l-0.459-0.234
					l0.229-0.457l0.458-0.117l0.229-0.449l-0.458-0.457L56.408-7.28c0,0,0.229-0.566,0.682-0.225
					c0.453,0.341,0.453,0.341,0.453,0.341l0.8,0.117l0.569-0.117l0.464-0.568l0.677-0.346c0.342,0.798,0.342,0.798,0.342,0.798
					l0.233,0.458l-0.233,1.023l0.463,0.574l0.341,0.458l0.337,0.682l1.256,0.458c0.458-0.117,0.458-0.117,0.458-0.117l1.253-0.113
					l0.92-0.116l0.448-0.229c0.69,0.345,0.69,0.345,0.69,0.345l0.674,0.113l1.262-0.113l0.682-0.229c0,0,0.23,0.229,1.03,0.229
					c0.798,0,0.346-0.911,0.798,0c0.454,0.912,0.348,0.454,0.454,0.912c0.114,0.458,0.114,0.458,0.114,0.458
					s-0.221,0.225-0.34,0.571c-0.117,0.341-0.117,0.341-0.117,0.341l-0.563,0.911l-0.458,0.912l-0.799,0.569L67.922,1.05h-0.453
					l-1.257-0.116l-1.022-0.118h-0.46L64.16,1.159l-1.027,0.233H62.45l-0.683-0.576c0,0,0-0.224-0.804-0.339
					c-0.788-0.118-0.788-0.118-0.788-0.118s0.452,0-0.572,0c-1.021,0-1.021,0-1.021,0h-0.58l-0.569-0.334L56.637-0.44l-0.91-0.225
					L55.03-0.777l-0.79-0.112h-1.486c-0.91,0.793-0.91,1.248-0.91,1.248l-0.116,0.457C51.27,1.05,51.27,1.05,51.27,1.05
					s0,0-0.449-0.234c-0.457-0.224-0.457-0.224-0.457-0.224l-0.576-0.567l-0.453-0.121l-0.578,0.121l-0.221,0.452
					c0,0,0,0.115-0.457,0c-0.449-0.118-0.449-0.118-0.449-0.118l-0.346-0.682l-0.799-0.455c0,0,0.113-0.112-0.803-0.112
					c-0.907,0-2.164-0.458-2.164-0.458l-0.569-0.341l-0.571-0.117l-0.458-0.341l-0.457-0.799c0,0,0.117-0.341,0.234-0.682
					c0.107-0.345-0.464-0.687-0.464-0.687h-0.678h-0.682c0,0-1.031,0.113-1.373,0.113c-0.341,0-0.911,0.116-0.911,0.116l-0.91,0.113
					c0,0-0.347,0-0.684,0c-0.349,0-1.256,0.116-1.256,0.116h-0.803l-0.562,0.113l-0.694,0.117l-0.562,0.341h-0.805h-0.573
					l-0.683,0.116L29.49-3.062l-0.682,0.346l-0.683,0.454H27.21h-0.687c0,0-0.121-0.112-0.682,0
					c-0.575,0.116-0.575,0.116-0.575,0.116l-1.02,0.458l-1.143,0.341c0,0-0.569,0.111-0.804,0.458
					c-0.228,0.341-0.228,0.341-0.228,0.341s-0.566,0.108-0.683,0.453c-0.112,0.342-0.912,0.804-0.912,0.804L19.79,1.274
					c-0.793,0.34-0.793,0.34-0.793,0.34l-0.798,1.258c0,0-0.118,0.224-0.566,0.457c-0.458,0.226,0.108-0.232-0.458,0.226
					C16.6,4.012,16.6,4.012,16.6,4.012l0,0l-1.146,0.8l-0.791,0.457l-0.687,0.454l-1.139,1.486l-0.803,0.569l-0.567,0.453
					c0,0-0.112-0.34-0.457,0.458c-0.342,0.799-0.688,1.598-0.688,1.598L9.88,11.312l-0.467,0.456l-0.108,1.6c0,0,0,0.115,0,0.457
					s0.225-0.116-0.232,0.795c-0.458,0.91-0.908,1.368-0.908,1.368l-0.686,1.599c0,0-0.23,0.229-0.23,0.682c0,0.458,0,1.828,0,1.828
					c0,0.57,0,0.57,0,0.57l-0.228,1.596l-0.458,0.685c0,0-0.341,0.564-0.454,0.915c-0.112,0.338-0.34,1.141-0.34,1.141"/>
				<path fill-rule="evenodd" clip-rule="evenodd" fill="#0084C4" d="M80.525,67.374c0,0,0.091,1.109-0.254,1.626
					c-0.338,0.512-0.518,1.108-0.518,1.108c-0.251,0.427-0.251,0.856-0.251,0.856l-0.345,1.281c0,0-0.086,0.686-0.168,0.938
					c-0.084,0.261-0.264,0.941-0.264,0.941s0.09,0.432,0,0.688c-0.076,0.255-0.076,0.255-0.076,0.255s10.26-7.868,9.575-16.337
					c0,0-0.679,0.346-0.679,1.022c0,0.69-0.861,1.034-0.947,1.288c-0.086,0.258,0.26-0.084-0.086,0.258
					c-0.336,0.345-0.848,0.941-0.848,0.941l-0.512,0.341l-0.352,0.257l-0.336,0.174l-0.436,0.081l-0.34,0.091l-0.683,0.08
					l-0.417,0.174c-0.865,0.338-0.865,0.338-0.865,0.338s-0.083,0.09-0.428,0.262c-0.347,0.174-0.683,0.425-0.683,0.425
					s-0.091,0.257-0.091,0.516c0,0.253-0.076,0.773-0.076,0.773l0.251,0.853L80.525,67.374z"/>
			</g>
			<g>
				<defs>
					<path id="SVGID_3_" d="M78.685,19.186l1.249,1.363l0.921,0.979l0.111,0.854l0.569,0.739c0,0,0.518,1.029,0.518,1.193
						c0,0.177,0.965,1.488,0.965,1.488s0.457,0.791,0.58,0.91c0.103,0.114,0.219,0.23,0.398,0.288
						c0.166,0.054,1.539,0.507,1.539,0.507l2.061,0.691l1.594-0.233l1.029-0.053l0.68-0.118l0.922-0.395
						c0,0,0.107,0.224-0.121,0.684c-0.232,0.453-0.172,0.456-0.172,0.627c0,0.17,0.059,0.569,0.059,0.8
						c0,0.225,0.061,0.681,0.061,0.852s-0.061,1.145-0.061,1.145s-0.287,0.508-0.342,0.677c-0.048,0.17-0.398,0.288-0.346,0.683
						c0.057,0.404-0.458,0.915-0.458,0.915l-0.222,0.575l-0.801,0.628c0,0-0.291-0.179-0.346,0.282
						c-0.049,0.453-0.342,1.028-0.4,1.199c-0.061,0.17-0.632,0.911-0.632,0.911s-0.224,0.517-0.341,0.687
						c-0.104,0.17-0.451,0.507-0.451,0.507l-0.349,0.346l-0.565,0.225l-0.462,0.346l-0.794,0.452c0,0-0.117,0.342-0.229,0.459
						c-0.114,0.117-0.342,0.399-0.464,0.574c-0.107,0.172,0,0.219-0.224,0.45c-0.221,0.233-0.346,0.29-0.513,0.573
						c-0.175,0.283-0.403,1.365-0.403,1.365l-0.391,0.287c-0.521,0.402-0.803,0.458-0.803,0.458l-0.229,0.17l-0.458,0.287
						l-0.511,0.054l-0.405,0.229l-0.287,0.23l-0.281,0.402l-0.333,1.424l-0.121,0.342c0,0-0.347,0.453-0.347,0.623
						c0,0.171-0.058,1.193-0.058,1.193l-0.108,0.346l-0.125,0.346l-0.104,0.229l-0.115,0.794c0,0,0.115,0.347,0.062,0.574
						c-0.062,0.225,0,0.401-0.062,0.566c-0.054,0.174-0.116,0.629-0.116,0.629s0.223-0.062,0.116,0.283
						c-0.116,0.344-0.229,0.689-0.229,1.143s-0.175,1.2-0.175,1.2s0.175,0.282,0.061,0.398c-0.119,0.117-0.344,1.024-0.344,1.024
						s0,0.062,0,0.231c0,0.167,0.053,0.28,0,0.567c-0.059,0.283,0.059,0.97-0.117,1.023c-0.17,0.062-0.17,0.861-0.17,0.861
						s0.062,0.053,0,0.283c-0.049,0.229-0.283,1.261-0.283,1.261s0,0.107-0.055,0.342c-0.062,0.22,0.055,0.106-0.062,0.453
						c-0.117,0.341-0.221,0.569-0.221,0.569l-18.326,1.195l-6.691-9.239l-2.906-20.36l-0.68-12.999l12.665-10.782l7.887,6.163
						l5.997,1.538L78.685,19.186z"/>
				</defs>
				<clipPath id="SVGID_4_">
					<use xlink:href="#SVGID_3_"  overflow="visible"/>
				</clipPath>
				
					<radialGradient id="SVGID_5_" cx="76.2119" cy="40.7988" r="21.5571" gradientTransform="matrix(1.0012 0 0 1 -0.7057 0)" gradientUnits="userSpaceOnUse">
					<stop  offset="0" style="stop-color:#FFFFFF"/>
					<stop  offset="0.237" style="stop-color:#B1D9ED"/>
					<stop  offset="0.4837" style="stop-color:#66B5DC"/>
					<stop  offset="0.6886" style="stop-color:#2F9BCF"/>
					<stop  offset="0.8406" style="stop-color:#0D8AC7"/>
					<stop  offset="0.9231" style="stop-color:#0084C4"/>
				</radialGradient>
				<path clip-path="url(#SVGID_4_)" fill="url(#SVGID_5_)" d="M97.18,40.798c0,11.903-9.66,21.56-21.577,21.56
					c-11.922,0-21.586-9.656-21.586-21.56c0-11.904,9.664-21.559,21.586-21.559C87.52,19.239,97.18,28.894,97.18,40.798z"/>
			</g>
		</g>
	</g>
</g>
</svg>
