<?xml version="1.0" encoding="utf-8"?>
<!-- Generator: Adobe Illustrator 15.0.0, SVG Export Plug-In . SVG Version: 6.00 Build 0)  -->
<!DOCTYPE svg PUBLIC "-//W3C//DTD SVG 1.1//EN" "http://www.w3.org/Graphics/SVG/1.1/DTD/svg11.dtd">
<svg version="1.1" id="Layer_1" xmlns="http://www.w3.org/2000/svg" xmlns:xlink="http://www.w3.org/1999/xlink" x="0px" y="0px"
	 width="73px" height="45px" viewBox="0 0 73 45" enable-background="new 0 0 73 45" xml:space="preserve">
<path fill="#FFFFFF" d="M72.279,37.035L58.982,23.739c1.392-2.343,2.205-5.067,2.205-7.989c0-8.663-7.024-15.688-15.688-15.688
	c-8.662,0-15.688,7.024-15.688,15.688S36.838,31.438,45.5,31.438c3.568,0,6.848-1.205,9.482-3.212l13.053,13.053L72.279,37.035z
	 M45.5,25.625c-5.453,0-9.875-4.422-9.875-9.875s4.422-9.875,9.875-9.875s9.875,4.422,9.875,9.875S50.953,25.625,45.5,25.625z"/>
<g>
	<path fill="#FFFFFF" d="M1.965,8.304l22.398,2.323c0.678-2.807,1.899-5.401,3.549-7.665L1.965,8.304z"/>
	<path fill="#FFFFFF" d="M23.91,13.149l-23.945,4.88l24.324,2.524c-0.349-1.547-0.539-3.152-0.539-4.804
		C23.75,14.869,23.809,14.003,23.91,13.149z"/>
	<path fill="#FFFFFF" d="M3.968,27.756l25.489,2.676c-1.849-2.018-3.318-4.387-4.305-6.993L3.968,27.756z"/>
	<path fill="#FFFFFF" d="M13.965,36.051l28.971,1.294c-4.29-0.505-8.199-2.255-11.354-4.884L13.965,36.051z"/>
	<polygon fill="#FFFFFF" points="33.36,41.343 62.832,44.075 55.941,37.185 	"/>
</g>
</svg>
