<?xml version="1.0" encoding="utf-8"?>
<!-- Generator: Adobe Illustrator 15.0.0, SVG Export Plug-In . SVG Version: 6.00 Build 0)  -->
<!DOCTYPE svg PUBLIC "-//W3C//DTD SVG 1.1//EN" "http://www.w3.org/Graphics/SVG/1.1/DTD/svg11.dtd">
<svg version="1.1" id="Layer_1" xmlns="http://www.w3.org/2000/svg" xmlns:xlink="http://www.w3.org/1999/xlink" x="0px" y="0px"
	 width="67px" height="56px" viewBox="0 0 67 56" enable-background="new 0 0 67 56" xml:space="preserve">
<path fill="#FFFFFF" d="M65.578,56c0.577,0,0.806-1.403,0.806-2.269v-1.05c0-0.865-0.232-1.572-0.81-1.572
	c-0.576,0-0.809-0.708-0.809-1.572v-1.049c0-0.866,0.232-1.573,0.809-1.573c0.577,0,0.81-0.709,0.81-1.573v-1.048
	c0-0.865-0.232-1.574-0.81-1.574c-0.576,0-0.809-0.706-0.809-1.572v-1.049c0-0.865,0.232-1.573,0.809-1.573
	c0.577,0,0.81-0.706,0.81-1.572v-1.048c0-0.866-0.232-1.572-0.81-1.572c-0.576,0-0.809-0.708-0.809-1.574v-1.047
	c0-0.865,0.232-1.574,0.809-1.574c0.577,0,0.81-0.708,0.81-1.573v-1.048c0-0.865-0.232-1.573-0.81-1.573
	c-0.576,0-0.809-0.707-0.809-1.572v-1.049c0-0.865,0.232-1.572,0.809-1.572c0.577,0,0.81-0.707,0.81-1.572v-1.049
	c0-0.865-0.232-1.573-0.81-1.573c-0.576,0-0.809-0.708-0.809-1.573v-1.049c0-0.864,0.232-1.572,0.809-1.572
	c0.577,0,0.81-0.707,0.81-1.572V10.74c0-0.865-0.232-1.572-0.81-1.572c-0.576,0-0.809-0.708-0.809-1.573V7.069
	c0-0.864,0.232-1.573,0.809-1.573c0.577,0,0.81-0.705,0.81-1.571V2.876c0-0.866-0.425-1.571-1.002-1.571
	c-0.576,0-1.025-0.076-1.025-0.654c0-0.574-0.685-0.65-1.55-0.65h-1.048c-0.866,0-1.572,0.234-1.572,0.81
	c0,0.576-0.708,0.811-1.573,0.811h-0.525c-0.864,0-1.572-0.234-1.572-0.811c0-0.575-0.707-0.81-1.572-0.81h-1.049
	c-0.865,0-1.572,0.234-1.572,0.81c0,0.576-0.709,0.811-1.573,0.811h-1.048c-0.865,0-1.574-0.234-1.574-0.811
	c0-0.575-0.706-0.81-1.571-0.81h-1.05c-0.865,0-1.572,0.234-1.572,0.81c0,0.576-0.707,0.811-1.572,0.811h-1.049
	c-0.865,0-1.572-0.234-1.572-0.811c0-0.575-0.709-0.81-1.574-0.81h-1.048c-0.866,0-1.573,0.234-1.573,0.81
	c0,0.576-0.707,0.811-1.572,0.811h-1.05c-0.864,0-1.571-0.234-1.571-0.811c0-0.575-0.709-0.81-1.575-0.81h-1.047
	c-0.866,0-1.572,0.234-1.572,0.81c0,0.576-0.708,0.811-1.573,0.811h-1.048c-0.866,0-1.574-0.234-1.574-0.811
	c0-0.575-0.707-0.81-1.572-0.81h-1.05c-0.865,0-1.571,0.234-1.571,0.81c0,0.576-0.707,0.811-1.573,0.811h-1.047
	c-0.866,0-1.575-0.234-1.575-0.811c0-0.575-0.707-0.81-1.571-0.81h-1.048c-0.867,0-1.574,0.234-1.574,0.81
	c0,0.576-0.708,0.811-1.573,0.811H7.759c-0.865,0-1.573-0.234-1.573-0.811C6.186,0.234,5.477,0,4.611,0H4.088
	C3.224,0,2.516,0.076,2.516,0.65c0,0.868-0.087,0.851-1.258,0.851C0.681,1.501,0,2.01,0,2.876v1.049
	c0,0.866,0.562,1.571,0.994,1.571c0.434,0,0.892,0.709,0.892,1.573c0,0.865-0.511,1.573-0.942,1.573C0.511,8.643,0,9.352,0,10.217
	v1.047c0,0.866,0.375,1.574,0.809,1.574c0.435,0,0.81,0.706,0.81,1.573v1.048c0,0.865-0.375,1.572-0.81,1.572
	C0.375,17.031,0,17.739,0,18.604v1.048c0,0.867,0.375,1.573,0.809,1.573c0.435,0,0.81,0.708,0.81,1.573v1.047
	c0,0.866-0.375,1.574-0.81,1.574C0.375,25.42,0,26.127,0,26.993v1.048c0,0.865,0.375,1.573,0.809,1.573
	c0.435,0,0.81,0.707,0.81,1.572v1.05c0,0.865-0.375,1.571-0.81,1.571C0.375,33.808,0,34.516,0,35.382v1.048
	c0,0.864,0.375,1.572,0.809,1.572c0.435,0,0.81,0.708,0.81,1.573v1.049c0,0.864-0.375,1.572-0.81,1.572
	C0.375,42.196,0,42.903,0,43.769v1.051c0,0.864,0.375,1.57,0.809,1.57c0.435,0,0.81,0.709,0.81,1.574v1.048
	c0,0.864-0.375,1.573-0.81,1.573C0.375,50.585,0,51.292,0,52.158v1.049C0,54.071,0.707,56,1.141,56 M7.333,56L7.286,7.286h51.002
	L58.167,56"/>
<path fill="#FFFFFF" d="M20.435,47.479c-2.63,0-5.262-0.535-7.806-1.16v-3.614c2.455,1.429,5.622,2.679,8.521,2.679
	c3.392,0,5.575-1.652,5.575-5.22c0-7.229-14.498-6.559-14.498-15.971c0-5.8,5.041-7.718,10.039-7.718
	c2.406,0,4.771,0.356,7.136,0.803v3.302c-2.408-1.16-5.308-2.008-7.984-2.008c-2.676,0-4.281,1.651-4.281,4.328
	c0,6.868,14.497,6.244,14.497,15.791C31.633,45.338,26.191,47.479,20.435,47.479z"/>
<path fill="#FFFFFF" d="M54.023,46.988H36.225V23.034c0-4.284-0.044-4.417-4.237-5.086v-0.982h21.367l0.134,6.603h-1.25
	c0-3.345-1.649-4.506-4.817-4.506h-3.479c-2.052,0-2.811,0.046-2.811,2.32v8.877h5.397c2.542,0,3.257-1.159,3.659-3.435h1.247v9.368
	h-1.247c0-2.498-1.071-3.836-3.659-3.836h-5.397v9.947c0,2.453,0.535,2.588,2.811,2.588h4.953c3.033,0,3.791-1.517,4.013-4.372
	h1.249L54.023,46.988z"/>
</svg>
