<?xml version="1.0" encoding="utf-8"?>
<!-- Generator: Adobe Illustrator 15.0.0, SVG Export Plug-In . SVG Version: 6.00 Build 0)  -->
<!DOCTYPE svg PUBLIC "-//W3C//DTD SVG 1.1//EN" "http://www.w3.org/Graphics/SVG/1.1/DTD/svg11.dtd">
<svg version="1.1" id="Layer_1" xmlns="http://www.w3.org/2000/svg" xmlns:xlink="http://www.w3.org/1999/xlink" x="0px" y="0px"
	 width="20px" height="20px" viewBox="0 0 20 20" enable-background="new 0 0 20 20" xml:space="preserve">
<linearGradient id="SVGID_1_" gradientUnits="userSpaceOnUse" x1="9.4609" y1="18.375" x2="9.4609" y2="1.3755">
	<stop  offset="0" style="stop-color:#2A6391"/>
	<stop  offset="0.9264" style="stop-color:#44779E"/>
	<stop  offset="0.9332" style="stop-color:#4C7BA1"/>
	<stop  offset="0.9525" style="stop-color:#5D84A8"/>
	<stop  offset="0.9737" style="stop-color:#6789AC"/>
	<stop  offset="1" style="stop-color:#6A8BAD"/>
</linearGradient>
<rect x="0.961" y="1.375" fill="url(#SVGID_1_)" stroke="#204F74" stroke-miterlimit="10" width="17" height="17"/>
<g>
	<path fill="#FFFFFF" d="M8.062,16.242v-5.886H6.506v-2.12h1.557c0,0,0-0.87,0-1.812c0-1.422,0.92-2.728,3.038-2.728
		c0.857,0,1.492,0.082,1.492,0.082l-0.048,1.978c0,0-0.648-0.006-1.354-0.006c-0.764,0-0.886,0.354-0.886,0.937
		c0,0.462,0-0.985,0,1.548h2.3l-0.101,2.12h-2.199v5.886H8.062z"/>
</g>
</svg>
